<?xml version="1.0" encoding="utf-8"?>
<!-- Generator: Adobe Illustrator 24.0.0, SVG Export Plug-In . SVG Version: 6.00 Build 0)  -->
<svg version="1.1" id="Layer_1" xmlns="http://www.w3.org/2000/svg" xmlns:xlink="http://www.w3.org/1999/xlink" x="0px" y="0px"
	 viewBox="0 0 100 100" style="enable-background:new 0 0 100 100;" xml:space="preserve">
<style type="text/css">
	.st0{fill:#FFFFFF;}
</style>
<path class="st0" d="M64.1,33.3C60.8,37.4,55.7,40,50,40s-10.8-2.6-14.1-6.7C30.1,36,24.7,40.4,20,46.7h60
	C75.4,40.5,69.9,36.1,64.1,33.3z"/>
<circle class="st0" cx="50" cy="21.7" r="11.7"/>
<path class="st0" d="M83.3,83.3l6.5-23.5c0.9-3.6-1.4-6.5-5-6.5H15.2c-3.7,0-5.9,2.9-5.1,6.5l6.5,23.5H10V90h80v-6.7H83.3z M50,76.7
	c-2.8,0-5-2.2-5-5s2.2-5,5-5s5,2.2,5,5C55,74.4,52.8,76.7,50,76.7z"/>
</svg>
