<?xml version="1.0" encoding="utf-8"?>
<!-- Generator: Adobe Illustrator 24.0.0, SVG Export Plug-In . SVG Version: 6.00 Build 0)  -->
<svg version="1.1" id="Layer_1" xmlns="http://www.w3.org/2000/svg" xmlns:xlink="http://www.w3.org/1999/xlink" x="0px" y="0px"
	 viewBox="0 0 100 100" style="enable-background:new 0 0 100 100;" xml:space="preserve">
<style type="text/css">
	.st0{fill:#FFFFFF;}
</style>
<path class="st0" d="M83.3,16.7H16.7c-3.7,0-6.7,3-6.7,6.7v53.3c0,3.7,3,6.7,6.7,6.7h66.7c3.7,0,6.7-3,6.7-6.7V23.3
	C90,19.7,87,16.7,83.3,16.7z M34.5,67.8L30,70L20,50l10-20l4.5,2.2L25.6,50L34.5,67.8z M47.6,70h-5.2l10-40h5.2L47.6,70z M70,70
	l-4.5-2.2L74.4,50l-8.9-17.8L70,30l10,20L70,70z"/>
</svg>
