<?xml version="1.0" encoding="utf-8"?>
<!-- Generator: Adobe Illustrator 24.0.0, SVG Export Plug-In . SVG Version: 6.00 Build 0)  -->
<svg version="1.1" id="Layer_1" xmlns="http://www.w3.org/2000/svg" xmlns:xlink="http://www.w3.org/1999/xlink" x="0px" y="0px"
	 viewBox="0 0 100 100" style="enable-background:new 0 0 100 100;" xml:space="preserve">
<style type="text/css">
	.st0{fill:#FFFFFF;}
</style>
<path class="st0" d="M50,10c-5.5,0-10,4.5-10,10v5h20v-5C60,14.5,55.5,10,50,10z"/>
<path class="st0" d="M90,56.7V50H69.4c0.1-1.2,0.3-2.4,0.3-3.6c9.6-1.5,16.9-9.7,16.9-19.7H80c0,6.2-4.3,11.4-10,12.9V30H30v9.5
	c-5.7-1.5-10-6.7-10-12.9h-6.7c0,10,7.3,18.2,16.9,19.7c0.1,1.2,0.2,2.4,0.3,3.6H10v6.7h21.7c0.4,1.8,0.9,3.6,1.4,5.4
	c-9.7,4-16.5,13.5-16.5,24.6h6.7c0-8.2,5-15.3,12.1-18.4C38.7,76.2,43.6,83.6,50,90c6.4-6.4,11.3-13.8,14.6-21.7
	c7.1,3.1,12.1,10.1,12.1,18.4h6.7c0-11.1-6.8-20.6-16.5-24.6c0.6-1.8,1-3.6,1.4-5.4H90z"/>
</svg>
