<?xml version="1.0" encoding="utf-8"?>
<!-- Generator: Adobe Illustrator 24.0.0, SVG Export Plug-In . SVG Version: 6.00 Build 0)  -->
<svg version="1.1" id="Layer_1" xmlns="http://www.w3.org/2000/svg" xmlns:xlink="http://www.w3.org/1999/xlink" x="0px" y="0px"
	 viewBox="0 0 100 100" style="enable-background:new 0 0 100 100;" xml:space="preserve">
<style type="text/css">
	.st0{fill:#FFFFFF;}
</style>
<path class="st0" d="M79,83.3C75.4,74.6,73.3,65,73.3,55h4.3c1.2,3,3.3,5,5.7,5C87,60,90,55.5,90,50s-3-10-6.7-10
	c-2.5,0-4.6,2-5.7,5h-4.3c0-10,2-19.6,5.6-28.3H55v4.3c3,1.2,5,3.3,5,5.7c0,3.7-4.5,6.7-10,6.7s-10-3-10-6.7c0-2.5,2-4.6,5-5.7v-4.3
	H21c3.6,8.7,5.6,18.3,5.6,28.3h-4.3c-1.2-3-3.3-5-5.7-5C13,40,10,44.5,10,50s3,10,6.7,10c2.5,0,4.6-2,5.7-5h4.3
	c0,10-2,19.6-5.6,28.3h24v-4.3c-3-1.2-5-3.3-5-5.7c0-3.7,4.5-6.7,10-6.7s10,3,10,6.7c0,2.5-2,4.6-5,5.7v4.3H79z"/>
</svg>
