<?xml version="1.0" encoding="utf-8"?>
<!-- Generator: Adobe Illustrator 24.0.0, SVG Export Plug-In . SVG Version: 6.00 Build 0)  -->
<svg version="1.1" id="Layer_1" xmlns="http://www.w3.org/2000/svg" xmlns:xlink="http://www.w3.org/1999/xlink" x="0px" y="0px"
	 viewBox="0 0 100 100" style="enable-background:new 0 0 100 100;" xml:space="preserve">
<style type="text/css">
	.st0{fill:#FFFFFF;}
</style>
<path class="st0" d="M83.3,10H16.7C13,10,10,13,10,16.7V70c0,3.7,3,6.7,6.7,6.7h30v6.7H33.3V90h33.3v-6.7H53.3v-6.7h30
	c3.7,0,6.7-3,6.7-6.7V16.7C90,13,87,10,83.3,10z M43.3,50.3L38.6,55l-7-7l-7,7L20,50.3l7-7l-7-7l4.7-4.7l7,7l7-7l4.7,4.7l-7,7
	L43.3,50.3z M63.3,54l-10-10l4.7-4.7l5.3,5.3l12-12l4.7,4.7L63.3,54z"/>
</svg>
