<?xml version="1.0" encoding="utf-8"?>
<!-- Generator: Adobe Illustrator 24.0.0, SVG Export Plug-In . SVG Version: 6.00 Build 0)  -->
<svg version="1.1" id="Layer_1" xmlns="http://www.w3.org/2000/svg" xmlns:xlink="http://www.w3.org/1999/xlink" x="0px" y="0px"
	 viewBox="0 0 100 100" style="enable-background:new 0 0 100 100;" xml:space="preserve">
<style type="text/css">
	.st0{fill:#FCFAFA;}
</style>
<polygon class="st0" points="40,56.7 54.5,56.7 60,43.3 45.5,43.3 "/>
<path class="st0" d="M83.3,10H16.7C13,10,10,13,10,16.7v66.7c0,3.7,3,6.7,6.7,6.7h66.7c3.7,0,6.7-3,6.7-6.7V16.7
	C90,13,87,10,83.3,10z M80,43.3H67.2l-5.5,13.3h11.7v6.7H58.9L52,80l-6.2-2.6l5.8-14.1H37.3L30.4,80l-6.2-2.6L30,63.3H20v-6.7h12.8
	l5.5-13.3H26.7v-6.7h14.4L48,20l6.2,2.6l-5.8,14.1h14.4L69.6,20l6.2,2.6L70,36.7h10V43.3z"/>
</svg>
