<?xml version="1.0" encoding="utf-8"?>
<!-- Generator: Adobe Illustrator 24.0.0, SVG Export Plug-In . SVG Version: 6.00 Build 0)  -->
<svg version="1.1" id="Layer_1" xmlns="http://www.w3.org/2000/svg" xmlns:xlink="http://www.w3.org/1999/xlink" x="0px" y="0px"
	 viewBox="0 0 100 100" style="enable-background:new 0 0 100 100;" xml:space="preserve">
<style type="text/css">
	.st0{fill:#000;}
</style>
<path class="st0" d="M80,24.7V30c0,7.4-6,13.3-13.3,13.3c-7.4,0-13.3-6-13.3-13.3V20H60v10c0,3.7,3,6.7,6.7,6.7c3.7,0,6.7-3,6.7-6.7
	v-6.7C73.3,16,67.4,10,60,10s-13.3,6-13.3,13.3V30v16.7c0,3.7,3,6.7,6.7,6.7h20V60h-6.7v10H60V60h-6.7C46,60,40,54,40,46.7v-10H30
	V30h10v-6.7c0-2.3,0.4-4.6,1.2-6.7h-4.5c-7.4,0-13.3,6-13.3,13.3C16,30,10,36,10,43.3s6,13.3,13.3,13.3h3.3v-3.3
	c0-3.7-3-6.7-6.7-6.7h-3.3V40H20c7.4,0,13.3,6,13.3,13.3v3.3c0,5.5,4.5,10,10,10H50c6.2,6,10,14.2,10,23.3h13.3V66.7
	c5.5,0,10-4.5,10-10v-3.4c4-3,6.7-7.8,6.7-13.3C90,33.2,85.9,27.3,80,24.7z"/>
</svg>
