<?xml version="1.0" encoding="utf-8"?>
<!-- Generator: Adobe Illustrator 24.0.0, SVG Export Plug-In . SVG Version: 6.00 Build 0)  -->
<svg version="1.1" id="Layer_1" xmlns="http://www.w3.org/2000/svg" xmlns:xlink="http://www.w3.org/1999/xlink" x="0px" y="0px"
	 viewBox="0 0 491.5 491.5" style="enable-background:new 0 0 491.5 491.5;" xml:space="preserve">
<style type="text/css">
	.st0{fill:#FFFFFF;}
	.st1{fill-rule:evenodd;clip-rule:evenodd;fill:#FFFFFF;}
</style>
<g id="Layer_x0020_1">
	<path class="st0" d="M194.5,104.1c-2.1,0-3.8,1.7-3.8,3.8s1.7,3.8,3.8,3.8h32v253.1h-32c-2.1,0-3.8,1.7-3.8,3.8
		c0,2.1,1.7,3.8,3.8,3.8h35.8c2.1,0,3.8-1.7,3.8-3.8V107.9c0-2.1-1.7-3.8-3.8-3.8L194.5,104.1L194.5,104.1z"/>
	<path class="st0" d="M258.1,235.5h-63.6c-2.1,0-3.8,1.7-3.8,3.8c0,2.1,1.7,3.8,3.8,3.8h65.6C259.4,240.6,258.8,238,258.1,235.5
		L258.1,235.5z"/>
	<path class="st0" d="M135.9,150.5c0-3.2-2.6-5.8-5.8-5.8c-3.2,0-5.8,2.6-5.8,5.8v18.3c0,3.2,2.6,5.8,5.8,5.8c3.2,0,5.8-2.6,5.8-5.8
		V150.5z"/>
	<path class="st0" d="M284.9,281.3c14.8,24.8,35.7,45.4,60.7,59.9c25-14.5,45.9-35.1,60.7-59.9c15.1-25.3,23.8-54.9,23.8-86.6
		c0-8-0.5-15.8-1.6-23.4c-0.7-5.4-1.8-10.7-3-16c-14.2-0.3-28-2.3-41.3-5.6c-13.5-3.4-26.4-8.3-38.6-14.4
		c-12.2,6.2-25.1,11-38.6,14.4c-13.3,3.3-27.1,5.3-41.3,5.6c-1.3,5.2-2.3,10.6-3,16c-1,7.5-1.6,15.3-1.6,23.4
		C261.1,226.4,269.8,256,284.9,281.3L284.9,281.3z"/>
	<g id="_549986632">
		<path id="_549986656" class="st0" d="M136.2,407.3c0-3.3-2.7-6-6-6s-6,2.7-6,6v15.1l-22.3,3.4c-0.7,0-1.2,0.4-1.2,1
			c0,0.5,0.5,1,1.2,1c35,5.3,21.6,5.3,56.7,0c0.7,0,1.2-0.4,1.2-1c0-0.5-0.5-1-1.2-1l-22.3-3.4V407.3L136.2,407.3z"/>
		<path id="_549986560" class="st1" d="M68.7,322.3h122.9c3.3,0,6,2.7,6,6v79c0,3.3-2.7,6-6,6H68.7c-3.3,0-6-2.7-6-6v-79
			C62.7,325,65.4,322.3,68.7,322.3z M71.4,396.6h117.4v-65.9H71.4V396.6z"/>
	</g>
	<g id="_549986992">
		<path id="_549986872" class="st0" d="M136.2,282c0-3.3-2.7-6-6-6s-6,2.7-6,6v15.1l-22.3,3.4c-0.7,0-1.2,0.4-1.2,1
			c0,0.5,0.5,1,1.2,1c35,5.3,21.6,5.3,56.7,0c0.7,0,1.2-0.4,1.2-1c0-0.5-0.5-1-1.2-1l-22.3-3.4C136.2,297.1,136.2,282,136.2,282z"/>
		<path id="_549986512" class="st1" d="M68.7,197h122.9c3.3,0,6,2.7,6,6v79c0,3.3-2.7,6-6,6H68.7c-3.3,0-6-2.7-6-6v-79
			C62.7,199.7,65.4,197,68.7,197z M71.4,271.3h117.4v-65.9H71.4V271.3z"/>
	</g>
	<g id="_549985648">
		<path id="_549985864" class="st0" d="M136.2,152c0-3.3-2.7-6-6-6s-6,2.7-6,6v15.1l-22.3,3.4c-0.7,0-1.2,0.4-1.2,1
			c0,0.5,0.5,1,1.2,1c35,5.3,21.6,5.3,56.7,0c0.7,0,1.2-0.4,1.2-1c0-0.5-0.5-1-1.2-1l-22.3-3.4C136.2,167.1,136.2,152,136.2,152z"/>
		<path id="_549985672" class="st1" d="M68.7,67h122.9c3.3,0,6,2.7,6,6v79c0,3.3-2.7,6-6,6H68.7c-3.3,0-6-2.7-6-6V73
			C62.7,69.7,65.4,67,68.7,67z M71.4,141.3h117.4V75.3H71.4V141.3z"/>
	</g>
</g>
</svg>
