<?xml version="1.0" encoding="utf-8"?>
<!-- Generator: Adobe Illustrator 24.0.0, SVG Export Plug-In . SVG Version: 6.00 Build 0)  -->
<svg version="1.1" id="Layer_1" xmlns="http://www.w3.org/2000/svg" xmlns:xlink="http://www.w3.org/1999/xlink" x="0px" y="0px"
	 viewBox="0 0 491.5 491.5" style="enable-background:new 0 0 491.5 491.5;" xml:space="preserve">
<style type="text/css">
	.st0{fill-rule:evenodd;clip-rule:evenodd;fill:#f3a712;}
	.st1{fill:#f3a712;}
</style>
<g id="Layer_x0020_1">
	<path class="st0" d="M268.5,186.3h111.9c4.5,0,8.6,1.8,11.6,4.8c3,3,4.8,7.1,4.8,11.6v16.5h-8.5v-13.8H260.6v106.6h91.6v21.8
		c0,4.4,1.4,8.6,4,12.1h-87.8c-4.5,0-8.6-1.8-11.6-4.8c-3-3-4.8-7.1-4.8-11.6V202.7c0-4.5,1.8-8.6,4.8-11.6
		C259.9,188.2,264,186.3,268.5,186.3L268.5,186.3z M324.4,319.8c3.8,0,6.9,3.1,6.9,6.9c0,3.8-3.1,6.9-6.9,6.9
		c-3.8,0-6.9-3.1-6.9-6.9C317.5,322.9,320.6,319.8,324.4,319.8z M314.3,194.1c-1.5,0-2.6,1.2-2.6,2.6c0,1.5,1.2,2.6,2.6,2.6h20.3
		c1.5,0,2.6-1.2,2.6-2.6c0-1.5-1.2-2.6-2.6-2.6H314.3z"/>
	<path class="st0" d="M372.8,227.6h45.2c3.3,0,6.4,1.4,8.6,3.6c2.2,2.2,3.6,5.2,3.6,8.6v94.1c0,3.3-1.4,6.4-3.6,8.6
		c-2.2,2.2-5.2,3.6-8.6,3.6h-45.2c-3.3,0-6.4-1.4-8.6-3.6c-2.2-2.2-3.6-5.2-3.6-8.6v-94.1c0-3.3,1.4-6.4,3.6-8.6
		C366.4,229,369.4,227.6,372.8,227.6L372.8,227.6z M389.4,234.2c-0.8,0-1.5,0.7-1.5,1.5c0,0.8,0.7,1.5,1.5,1.5h11.8
		c0.8,0,1.5-0.7,1.5-1.5c0-0.8-0.7-1.5-1.5-1.5H389.4z M395.4,326.6c2.8,0,5.1,2.3,5.1,5.1c0,2.8-2.3,5.1-5.1,5.1
		c-2.8,0-5.1-2.3-5.1-5.1C390.2,328.9,392.5,326.6,395.4,326.6z M423.7,241.8H367v79.1h56.8V241.8L423.7,241.8z"/>
	<g id="_549624064">
		<path id="_549624832" class="st0" d="M66.7,143.8h245.1c2.9,0,5.3,2.4,5.3,5.3V178h-10.6v-23.6H72v107.7h171.7v44.4h-177
			c-2.9,0-5.3-2.4-5.3-5.3V149.1C61.4,146.2,63.8,143.8,66.7,143.8L66.7,143.8z"/>
		<path id="_549625120" class="st1" d="M202.8,301.2c0-2.9-6.1-5.3-13.6-5.3c-7.5,0-13.6,2.4-13.6,5.3V337c0,2.9,6.1,5.3,13.6,5.3
			c7.5,0,13.6-2.4,13.6-5.3V301.2z"/>
		<path id="_549624088" class="st1" d="M136.6,339.2c0,11.3,105.3,11.3,105.3,0C241.9,327.9,136.6,327.9,136.6,339.2z"/>
	</g>
</g>
</svg>
