<?xml version="1.0" encoding="utf-8"?>
<!-- Generator: Adobe Illustrator 24.0.0, SVG Export Plug-In . SVG Version: 6.00 Build 0)  -->
<svg version="1.1" id="Layer_1" xmlns="http://www.w3.org/2000/svg" xmlns:xlink="http://www.w3.org/1999/xlink" x="0px" y="0px"
	 viewBox="0 0 48 48" style="enable-background:new 0 0 48 48;" xml:space="preserve">
<style type="text/css">
	.st0{fill:#FFFFFF;}
</style>
<title>2-Process</title>
<g id="_2-Process">
	<path class="st0" d="M25.6,38.2h-2c-1.7,0-3-1.3-3-3v-2.8c-0.1-0.1-0.3-0.1-0.4-0.2l-1.9,1.9c-1.2,1.1-3.1,1.1-4.2,0l-1.4-1.4
		c-1.2-1.2-1.2-3.1,0-4.2l1.9-1.9c-0.1-0.1-0.1-0.3-0.2-0.4h-2.8c-1.7,0-3-1.3-3-3v-2c0-1.7,1.3-3,3-3h2.8c0.1-0.1,0.1-0.3,0.2-0.4
		l-1.9-1.9c-1.2-1.2-1.2-3.1,0-4.2l0,0l1.4-1.4c1.2-1.1,3.1-1.1,4.2,0l1.9,1.9c0.1-0.1,0.3-0.1,0.4-0.2V9.2c0-1.7,1.3-3,3-3h2
		c1.7,0,3,1.3,3,3V12c0.1,0.1,0.3,0.1,0.4,0.2l1.9-1.9c1.2-1.1,3.1-1.1,4.2,0l1.4,1.4c1.2,1.2,1.2,3.1,0,4.2l-1.9,1.9
		c0.1,0.1,0.1,0.3,0.2,0.4h2.8c1.7,0,3,1.3,3,3v2c0,1.7-1.3,3-3,3h-2.8c-0.1,0.1-0.1,0.3-0.2,0.4l1.9,1.9c1.2,1.2,1.2,3.1,0,4.2
		l-1.4,1.4c-1.2,1.1-3.1,1.1-4.2,0L29,32.3c-0.1,0.1-0.3,0.1-0.4,0.2v2.8C28.6,36.9,27.2,38.2,25.6,38.2L25.6,38.2z M19.9,30.1
		c0.2,0,0.3,0,0.5,0.1c0.5,0.2,1,0.5,1.5,0.6c0.4,0.1,0.7,0.5,0.7,1v3.5c0,0.6,0.4,1,1,1h2c0.6,0,1-0.4,1-1v-3.5
		c0-0.4,0.3-0.8,0.7-1c0.5-0.2,1-0.4,1.5-0.6c0.4-0.2,0.9-0.1,1.2,0.2l2.4,2.4c0.4,0.4,1,0.4,1.4,0l1.4-1.4c0.4-0.4,0.4-1,0-1.4
		l-2.5-2.5c-0.3-0.3-0.4-0.8-0.2-1.2c0.2-0.5,0.5-1,0.6-1.5c0.1-0.4,0.5-0.7,1-0.7h3.5c0.6,0,1-0.4,1-1v-2c0-0.6-0.4-1-1-1h-3.5
		c-0.4,0-0.8-0.3-1-0.7c-0.2-0.5-0.4-1-0.6-1.5c-0.2-0.4-0.1-0.9,0.2-1.2l2.5-2.5c0.4-0.4,0.4-1,0-1.4l-1.4-1.4
		c-0.4-0.4-1-0.4-1.4,0l-2.5,2.5c-0.3,0.3-0.8,0.4-1.2,0.2c-0.5-0.2-1-0.5-1.5-0.6c-0.4-0.1-0.7-0.5-0.7-1V9.2c0-0.6-0.4-1-1-1h-2
		c-0.6,0-1,0.4-1,1v3.5c0,0.4-0.3,0.8-0.7,1c-0.5,0.2-1,0.4-1.5,0.6c-0.4,0.2-0.9,0.1-1.2-0.2l-2.5-2.5c-0.4-0.4-1-0.4-1.4,0
		L13.8,13c-0.4,0.4-0.4,1,0,1.4l2.4,2.5c0.3,0.3,0.4,0.8,0.2,1.2c-0.2,0.5-0.5,1-0.6,1.5c-0.1,0.4-0.5,0.7-1,0.7h-3.5
		c-0.6,0-1,0.4-1,1v2c0,0.6,0.4,1,1,1H15c0.4,0,0.8,0.3,1,0.7c0.2,0.5,0.4,1,0.6,1.5c0.2,0.4,0.1,0.9-0.2,1.2L13.9,30
		c-0.4,0.4-0.4,1,0,1.4l1.4,1.4c0.4,0.4,1,0.4,1.4,0l2.5-2.4C19.4,30.2,19.7,30.1,19.9,30.1z"/>
	<path class="st0" d="M24.6,27.2c-2.8,0-5-2.2-5-5s2.2-5,5-5s5,2.2,5,5S27.3,27.2,24.6,27.2z M24.6,19.2c-1.7,0-3,1.3-3,3s1.3,3,3,3
		s3-1.3,3-3C27.6,20.6,26.2,19.2,24.6,19.2z"/>
	<line class="st0" x1="47.4" y1="12.2" x2="46.6" y2="12.2"/>
	<line class="st0" x1="0.6" y1="41.5" x2="0.6" y2="41.8"/>
</g>
</svg>
