<?xml version="1.0" encoding="utf-8"?>
<!-- Generator: Adobe Illustrator 24.0.0, SVG Export Plug-In . SVG Version: 6.00 Build 0)  -->
<svg version="1.1" id="Layer_1" xmlns="http://www.w3.org/2000/svg" xmlns:xlink="http://www.w3.org/1999/xlink" x="0px" y="0px"
	 viewBox="0 0 491.5 491.5" style="enable-background:new 0 0 491.5 491.5;" xml:space="preserve">
<style type="text/css">
	.st0{fill:#FFFFFF;}
	.st1{fill-rule:evenodd;clip-rule:evenodd;fill:#FFFFFF;}
</style>
<g id="Layer_x0020_1">
	<path class="st0" d="M188.2,168.1h220.9c5.9,0,11.3,2.4,15.2,6.3c3.9,3.9,6.3,9.3,6.3,15.2v47.9c0,5.9-2.4,11.3-6.3,15.2
		c-3.9,3.9-9.3,6.3-15.2,6.3H188.2c-5.9,0-11.3-2.4-15.2-6.3c-3.9-3.9-6.3-9.3-6.3-15.2v-47.9c0-5.9,2.4-11.3,6.3-15.2
		C176.9,170.6,182.3,168.1,188.2,168.1L188.2,168.1z M369.1,205.9c-4.2,0-7.7,3.4-7.7,7.7s3.4,7.7,7.7,7.7h20.2
		c4.2,0,7.7-3.4,7.7-7.7c0-4.2-3.4-7.7-7.7-7.7H369.1z"/>
	<path class="st0" d="M205.9,266.9h203.2c5.9,0,11.3,2.4,15.2,6.3c3.9,3.9,6.3,9.3,6.3,15.2v47.9c0,5.9-2.4,11.3-6.3,15.2
		c-3.9,3.9-9.3,6.3-15.2,6.3H231.1c9.5-5.7,7.5-22,6.6-31.3c-0.6-6-4.9-9.8-10.1-12.2c-1.9-0.9-3.8-1.5-5.7-2.3
		c-1.7-0.7-5.5-2.3-8.1-3.6c0.9-2.8,2.6-6.7,3.3-8.5c1-2.5,2-5.1,3-7.7c1.6-4.3,0.9-9.2-2-12.9l-4.8-6l-0.3,0.2
		c-0.6-0.6-1.2-1.3-1.8-1.9C209.5,269.9,207.7,268.4,205.9,266.9L205.9,266.9z M369.1,304.7c-4.2,0-7.7,3.4-7.7,7.7
		c0,4.2,3.4,7.7,7.7,7.7h20.2c4.2,0,7.7-3.4,7.7-7.7c0-4.2-3.4-7.7-7.7-7.7H369.1z"/>
	<path class="st0" d="M188.2,69.4h220.9c5.9,0,11.3,2.4,15.2,6.3c3.9,3.9,6.3,9.3,6.3,15.2v47.9c0,5.9-2.4,11.3-6.3,15.2
		c-3.9,3.9-9.3,6.3-15.2,6.3H188.2c-5.9,0-11.3-2.4-15.2-6.3c-3.9-3.9-6.3-9.3-6.3-15.2V90.9c0-5.9,2.4-11.3,6.3-15.2
		C176.9,71.8,182.3,69.4,188.2,69.4L188.2,69.4z M369.1,107.2c-4.2,0-7.7,3.4-7.7,7.7c0,4.2,3.4,7.7,7.7,7.7h20.2
		c4.2,0,7.7-3.4,7.7-7.7c0-4.2-3.4-7.7-7.7-7.7H369.1z"/>
	<path class="st1" d="M160.2,256.1c1.2,2.4,2.4,5.1,3.5,7.8c2.7,6.2,5.3,12.2,7.3,13.1c2.1,0.9,8.4-1.7,14.7-4.2
		c3.7-1.5,9.8-5.2,13.3-1.7c2.4,2,4.6,3.9,6.6,5.9c2.1,2.1,4.2,4.5,6.3,7.1l0,0c1.3,1.6,1.5,3.6,0.8,5.4c-0.8,2.3-1.8,4.9-2.9,7.5
		c-2.5,6.3-5.1,12.7-4.2,14.7c0.9,2,6.9,4.7,13.1,7.3c3.6,1.6,10.8,3.4,11.2,8.2c0.5,4.4,2.8,21.7-3.4,24.3
		c-2.4,1.2-5.1,2.4-7.8,3.5c-6.2,2.7-12.2,5.3-13.1,7.3c-0.9,2.1,1.7,8.4,4.2,14.7c1.1,2.7,2.2,5.4,3,7.7l0,0c0.7,2,0.1,4.2-1.3,5.6
		c-3.4,4.2-12.9,15.9-18.4,13.7c-2.3-0.8-4.9-1.8-7.5-2.9c-6.3-2.5-12.7-5.1-14.7-4.2c-2,0.9-4.7,6.9-7.3,13.1
		c-1.6,3.6-3.4,10.8-8.2,11.2c-5.9,0.7-21.8,2.5-24.3-3.4c-1.2-2.4-2.4-5.1-3.6-7.8c-2.7-6.2-5.3-12.2-7.3-13.1
		c-2.1-0.9-8.4,1.7-14.7,4.2c-2.7,1.1-5.4,2.2-7.7,3l0,0c-2,0.7-4.2,0.1-5.6-1.3c-2.4-2-4.6-3.9-6.6-5.9c-2.8-2.8-8.9-7.9-7.1-12.5
		c0.8-2.3,1.8-4.9,2.9-7.5c2.5-6.3,5.1-12.7,4.2-14.7c-0.9-2-6.9-4.7-13.1-7.3c-3.6-1.6-10.8-3.4-11.2-8.2c-0.2-1.5-0.3-3.1-0.4-4.8
		c-0.1-1.8-0.2-3.5-0.2-5c0-1.5,0.1-3.2,0.2-5c0.1-1.8,0.3-3.4,0.4-5l0,0c0.2-2,1.6-3.7,3.3-4.4c2.4-1.2,5.1-2.4,7.8-3.6
		c6.2-2.7,12.2-5.3,13.1-7.3c0.9-2.1-1.7-8.4-4.2-14.7c-1.1-2.7-2.2-5.4-3-7.7l0,0c-0.7-2-0.1-4.2,1.3-5.6c2-2.4,3.9-4.6,5.9-6.6
		c2.8-2.8,7.9-8.9,12.5-7.1c2.3,0.8,4.9,1.8,7.5,2.9c6.3,2.5,12.7,5.1,14.7,4.2c2-0.9,4.7-6.9,7.3-13.1c3.1-7.1,3.1-10,8.9-11.1
		C141.9,251.8,157.9,250.6,160.2,256.1L160.2,256.1z M145.7,294.4c11.8,0,22.4,4.8,30.1,12.5c7.7,7.7,12.5,18.4,12.5,30.1
		c0,11.8-4.8,22.4-12.5,30.1c-7.7,7.7-18.4,12.5-30.1,12.5c-11.8,0-22.4-4.8-30.1-12.5c-7.7-7.7-12.5-18.4-12.5-30.1
		c0-11.8,4.8-22.4,12.5-30.1C123.3,299.2,133.9,294.4,145.7,294.4z M168.1,314.6c-5.7-5.7-13.7-9.3-22.4-9.3
		c-8.7,0-16.7,3.5-22.4,9.3c-5.7,5.7-9.3,13.7-9.3,22.4c0,8.7,3.5,16.7,9.3,22.4c5.7,5.7,13.7,9.3,22.4,9.3c8.7,0,16.7-3.5,22.4-9.3
		c5.7-5.7,9.3-13.7,9.3-22.4C177.4,328.3,173.8,320.4,168.1,314.6z M145.7,316.4c5.7,0,10.8,2.3,14.6,6c3.7,3.7,6,8.9,6,14.6
		c0,5.7-2.3,10.8-6,14.6c-3.7,3.7-8.9,6-14.6,6c-5.7,0-10.8-2.3-14.6-6c-3.7-3.7-6-8.9-6-14.6c0-5.7,2.3-10.8,6-14.6
		C134.9,318.7,140,316.4,145.7,316.4z M152.5,330.2c-1.7-1.7-4.2-2.8-6.8-2.8c-2.7,0-5.1,1.1-6.8,2.8c-1.7,1.7-2.8,4.2-2.8,6.8
		s1.1,5.1,2.8,6.8c1.7,1.7,4.2,2.8,6.8,2.8c2.7,0,5.1-1.1,6.8-2.8c1.7-1.7,2.8-4.2,2.8-6.8C155.4,334.4,154.3,331.9,152.5,330.2z"/>
</g>
</svg>
