<?xml version="1.0" encoding="utf-8"?>
<!-- Generator: Adobe Illustrator 24.0.0, SVG Export Plug-In . SVG Version: 6.00 Build 0)  -->
<svg version="1.1" id="Layer_1" xmlns="http://www.w3.org/2000/svg" xmlns:xlink="http://www.w3.org/1999/xlink" x="0px" y="0px"
	 viewBox="0 0 491.5 491.5" style="enable-background:new 0 0 491.5 491.5;" xml:space="preserve">
<style type="text/css">
	.st0{fill-rule:evenodd;clip-rule:evenodd;fill:#FFFFFF;}
	.st1{fill:#FFFFFF;}
</style>
<g id="Layer_x0020_1">
	<path class="st0" d="M430.1,145.9v276.5c0,4.2-3.4,7.7-7.7,7.7H69.1c-4.2,0-7.7-3.4-7.7-7.7V145.9L430.1,145.9L430.1,145.9z
		 M115,345.6l47.2-122.9h17.5L230,345.6h-18.5l-14.3-37.2h-51.4l-13.5,37.2H115L115,345.6z M150.4,295.1h41.7l-12.8-34
		c-3.9-10.3-6.8-18.8-8.7-25.5c-1.6,7.9-3.8,15.7-6.6,23.5L150.4,295.1L150.4,295.1z M243,345.6V222.7h46.3c8.2,0,14.4,0.4,18.7,1.2
		c6,1,11.1,2.9,15.2,5.8c4.1,2.8,7.4,6.8,9.8,11.8c2.5,5.1,3.7,10.7,3.7,16.8c0,10.4-3.3,19.3-10,26.5c-6.7,7.2-18.7,10.8-36,10.8
		h-31.5v50L243,345.6L243,345.6z M259.2,281.1H291c10.5,0,18-1.9,22.4-5.9c4.4-3.9,6.6-9.4,6.6-16.5c0-5.1-1.3-9.6-3.9-13.2
		c-2.6-3.7-6-6.1-10.3-7.2c-2.7-0.7-7.8-1.1-15.2-1.1h-31.4V281.1z M360.3,345.6V222.7h16.3v122.9H360.3z"/>
	<path class="st1" d="M314.8,84.1v30.7h30.7V84.1H314.8z M261.1,114.8h30.7V84.1h-30.7V114.8z M368.7,84.1v30.7h30.7V84.1H368.7z
		 M69.1,61.4h353.3c4.2,0,7.7,3.4,7.7,7.7v69.1H61.4V69.1C61.4,64.9,64.9,61.4,69.1,61.4L69.1,61.4z"/>
</g>
</svg>
