<?xml version="1.0" encoding="utf-8"?>
<!-- Generator: Adobe Illustrator 24.0.0, SVG Export Plug-In . SVG Version: 6.00 Build 0)  -->
<svg version="1.1" id="Layer_1" xmlns="http://www.w3.org/2000/svg" xmlns:xlink="http://www.w3.org/1999/xlink" x="0px" y="0px"
	 viewBox="0 0 491.5 491.5" style="enable-background:new 0 0 491.5 491.5;" xml:space="preserve">
<style type="text/css">
	.st0{fill:#64B5F6;}
	.st1{fill:#424242;}
	.st2{fill-rule:evenodd;clip-rule:evenodd;fill:#424242;}
</style>
<g id="Layer_x0020_1">
	<path class="st0" d="M299.9,93.8c3.9,0,7.7,0.3,11.4,1c16.1,2.8,29.6,11.6,39.1,23.5c9.4,11.9,14.8,26.9,14.8,42.4
		c0,3.8-0.3,7.7-1,11.5c-1.5,8.8-3.9,15-9.3,19.4c-5.2,4.2-12.2,6-23.1,6H153.2c-13.3,0-21.1-5.2-24.7-12.6
		c-2.6-5.3-2.7-11.5-0.9-17.6c1.6-5.5,4.8-11,9.1-15.6c7-7.6,17-13.1,28.1-12.9c0-0.5,0-1.1,0-1.6c0-14.7,5.8-28,15.2-37.6
		C189.4,90,202.5,84,217,84c10.7,0,20.7,3.3,29,9c5.6,3.8,10.5,8.8,14.3,14.5c4.2-3.3,8.9-6.1,13.8-8.3
		C282.1,95.8,290.8,93.8,299.9,93.8L299.9,93.8z"/>
	<path class="st1" d="M155.3,376.3c0-4.2-3.4-7.7-7.7-7.7c-4.2,0-7.7,3.4-7.7,7.7v19.3l-28.5,4.3c-0.8,0-1.5,0.6-1.5,1.3
		c0,0.7,0.7,1.3,1.5,1.3c44.8,6.8,27.6,6.8,72.4,0c0.8,0,1.5-0.6,1.5-1.3s-0.7-1.3-1.5-1.3l-28.5-4.3L155.3,376.3L155.3,376.3z"/>
	<path class="st2" d="M69.1,267.7H226c4.2,0,7.7,3.4,7.7,7.7v100.9c0,4.2-3.4,7.7-7.7,7.7H69.1c-4.2,0-7.7-3.4-7.7-7.7V275.4
		C61.4,271.2,64.9,267.7,69.1,267.7z M72.6,362.6h150v-84.2h-150V362.6z"/>
	<path class="st1" d="M351.6,376.3c0-4.2-3.4-7.7-7.7-7.7c-4.2,0-7.7,3.4-7.7,7.7v19.3l-28.5,4.3c-0.8,0-1.5,0.6-1.5,1.3
		c0,0.7,0.7,1.3,1.5,1.3c44.8,6.8,27.6,6.8,72.4,0c0.8,0,1.5-0.6,1.5-1.3s-0.7-1.3-1.5-1.3l-28.5-4.3L351.6,376.3L351.6,376.3z"/>
	<path class="st2" d="M265.5,267.7h156.9c4.2,0,7.7,3.4,7.7,7.7v100.9c0,4.2-3.4,7.7-7.7,7.7H265.5c-4.2,0-7.7-3.4-7.7-7.7V275.4
		C257.8,271.2,261.2,267.7,265.5,267.7z M269,362.6h150v-84.2H269V362.6L269,362.6z"/>
	<path class="st1" d="M349.4,259.1c0,2.1,1.7,3.8,3.8,3.8s3.8-1.7,3.8-3.8v-25.2c0-2.1-1.7-3.8-3.8-3.8h-215c-2.1,0-3.8,1.7-3.8,3.8
		v25.2c0,2.1,1.7,3.8,3.8,3.8c2.1,0,3.8-1.7,3.8-3.8v-21.4h207.4L349.4,259.1L349.4,259.1z"/>
	<path class="st1" d="M241.9,205.3v28.5c0,2.1,1.7,3.8,3.8,3.8c2.1,0,3.8-1.7,3.8-3.8v-28.5H241.9L241.9,205.3z"/>
</g>
</svg>
