<?xml version="1.0" encoding="utf-8"?>
<!-- Generator: Adobe Illustrator 24.0.0, SVG Export Plug-In . SVG Version: 6.00 Build 0)  -->
<svg version="1.1" id="Layer_1" xmlns="http://www.w3.org/2000/svg" xmlns:xlink="http://www.w3.org/1999/xlink" x="0px" y="0px"
	 viewBox="0 0 491.5 491.5" style="enable-background:new 0 0 491.5 491.5;" xml:space="preserve">
<style type="text/css">
	.st0{fill:#FFFFFF;}
	.st1{fill-rule:evenodd;clip-rule:evenodd;fill:#FFFFFF;}
</style>
<g id="Layer_x0020_1">
	<path class="st0" d="M321.1,331.6c-19.3,19.3-45.9,31.2-75.4,31.2c-29.4,0-56.1-11.9-75.4-31.2c-19.3-19.3-31.2-45.9-31.2-75.4
		c0-9.5,1.3-18.8,3.6-27.6c2.4-8.9,5.9-17.3,10.4-25.2c1.2-2.6,3.9-4.3,6.9-4.3h171.3c2.7,0,5.3,1.3,6.7,3.8l0,0
		c4.6,8,8.2,16.6,10.7,25.7c2.4,8.8,3.6,18.1,3.6,27.6C352.4,285.6,340.4,312.3,321.1,331.6L321.1,331.6z M202.5,267.9
		c0,4.7,3.4,8.6,7.7,8.6c4.2,0,7.7-3.8,7.7-8.6v-27.3c0-4.7-3.4-8.6-7.7-8.6c-4.2,0-7.7,3.8-7.7,8.6V267.9z M273.7,267.9
		c0,4.7,3.4,8.6,7.7,8.6c4.2,0,7.7-3.8,7.7-8.6v-27.3c0-4.7-3.4-8.6-7.7-8.6c-4.2,0-7.7,3.8-7.7,8.6V267.9L273.7,267.9z
		 M226.2,267.9c0,4.7,3.4,8.6,7.7,8.6s7.7-3.8,7.7-8.6v-27.3c0-4.7-3.4-8.6-7.7-8.6c-4.2,0-7.7,3.8-7.7,8.6V267.9z M250,267.9
		c0,4.7,3.4,8.6,7.7,8.6c4.2,0,7.7-3.8,7.7-8.6v-27.3c0-4.7-3.4-8.6-7.7-8.6c-4.2,0-7.7,3.8-7.7,8.6V267.9z"/>
	<path class="st0" d="M276.5,180.6c0-4.2-13.8-7.7-30.7-7.7s-30.7,3.4-30.7,7.7v26.1c0,4.2,13.8,7.7,30.7,7.7s30.7-3.4,30.7-7.7
		L276.5,180.6L276.5,180.6z"/>
	<g id="_549999496">
		<path id="_549999688" class="st0" d="M216.9,327.4c0-4.2-3.4-7.7-7.7-7.7c-4.2,0-15.4,3.4-15.4,7.7V407l-24.5,9.5
			c-3.7,0-6.8,3-6.8,6.8s3,6.8,6.8,6.8l32.2,0c4.2,0,7.7-3.4,7.7-7.7L216.9,327.4L216.9,327.4z"/>
		<path id="_549999568" class="st0" d="M274.6,327.4c0-4.2,3.4-7.7,7.7-7.7c4.2,0,15.4,3.4,15.4,7.7V407l24.5,9.5
			c3.7,0,6.8,3,6.8,6.8s-3,6.8-6.8,6.8l-32.2,0c-4.2,0-7.7-3.4-7.7-7.7L274.6,327.4L274.6,327.4z"/>
	</g>
	<g id="_549999856">
		<path id="_550000024" class="st0" d="M104.7,317.3c-2,14.9,20.6,17.9,22.6,3c1.6-24.4,2.7-49.6,2.7-73.7
			c0-22.4-3.6-19.5,17.6-19.5c4.2,0,7.7-3.4,7.7-7.7c0-4.2,0.4-12-3.8-12c-32.7,0-37.3,1.4-37,21.4
			C114.9,267.5,112.9,279.4,104.7,317.3L104.7,317.3z"/>
		<path id="_549999904" class="st0" d="M386.8,317.3c2,14.9-20.6,17.9-22.6,3c-1.6-24.4-2.7-49.6-2.7-73.7
			c0-22.4,3.6-19.5-17.6-19.5c-4.2,0-7.7-3.4-7.7-7.7c0-4.2-0.4-12,3.8-12c32.7,0,37.3,1.4,37,21.4
			C376.6,267.5,378.6,279.4,386.8,317.3L386.8,317.3z"/>
	</g>
	<path class="st1" d="M245.8,61.4c22,0,41.9,8.9,56.3,23.3c14.4,14.4,23.3,34.3,23.3,56.3c0,7.1-0.9,14-2.7,20.6
		c-1.8,6.8-4.5,13.2-8,19.2l0,0c-1.4,2.5-4.1,3.9-6.7,3.8H183.4c-3,0-5.7-1.8-6.9-4.4c-3.3-5.8-5.9-12.1-7.7-18.7
		c-1.8-6.6-2.7-13.5-2.7-20.6c0-22,8.9-41.9,23.3-56.3C203.9,70.4,223.8,61.4,245.8,61.4L245.8,61.4z M217.2,114.4
		c0,4.2,3.4,7.7,7.7,7.7c4.2,0,7.7-3.4,7.7-7.7v-5.7c0-4.2-3.4-7.7-7.7-7.7s-7.7,3.4-7.7,7.7V114.4z M274.6,145.9
		c-6.5,8.9-17,14.6-28.8,14.6c-11.8,0-22.3-5.7-28.8-14.6H274.6L274.6,145.9z M258.9,114.4c0,4.2,3.4,7.7,7.7,7.7
		c4.2,0,7.7-3.4,7.7-7.7v-5.7c0-4.2-3.4-7.7-7.7-7.7c-4.2,0-7.7,3.4-7.7,7.7V114.4z"/>
</g>
</svg>
