<?xml version="1.0" encoding="utf-8"?>
<!-- Generator: Adobe Illustrator 24.0.0, SVG Export Plug-In . SVG Version: 6.00 Build 0)  -->
<svg version="1.1" id="Layer_1" xmlns="http://www.w3.org/2000/svg" xmlns:xlink="http://www.w3.org/1999/xlink" x="0px" y="0px"
	 viewBox="0 0 48 48" style="enable-background:new 0 0 48 48;" xml:space="preserve">
<style type="text/css">
	.st0{fill:#FFFFFF;}
</style>
<title>4-Coding</title>
<g id="_4-Coding">
	<path class="st0" d="M20,33c-2.2,0-4-1.8-4-4v-4c0-2.2,1.8-4,4-4s4,1.8,4,4v4C24,31.2,22.2,33,20,33z M20,23c-1.1,0-2,0.9-2,2v4
		c0,1.1,0.9,2,2,2s2-0.9,2-2v-4C22,23.9,21.1,23,20,23z"/>
	<path class="st0" d="M10,33c-2.2,0-4-1.8-4-4v-4c0-2.2,1.8-4,4-4s4,1.8,4,4c0,0.6-0.4,1-1,1s-1-0.4-1-1c0-1.1-0.9-2-2-2s-2,0.9-2,2
		v4c0,1.1,0.9,2,2,2s2-0.9,2-2c0-0.6,0.4-1,1-1s1,0.4,1,1C14,31.2,12.2,33,10,33z"/>
	<path class="st0" d="M29,33h-2c-0.6,0-1-0.4-1-1V22c0-0.6,0.4-1,1-1h2c2.2,0,4,1.8,4,4v4C33,31.2,31.2,33,29,33z M28,31h1
		c1.1,0,2-0.9,2-2v-4c0-1.1-0.9-2-2-2h-1V31z"/>
	<path class="st0" d="M41,33h-5c-0.6,0-1-0.4-1-1V22c0-0.6,0.4-1,1-1h5c0.6,0,1,0.4,1,1s-0.4,1-1,1h-4v8h4c0.6,0,1,0.4,1,1
		C42,32.6,41.6,33,41,33z"/>
	<path class="st0" d="M41,28h-5c-0.6,0-1-0.4-1-1s0.4-1,1-1h5c0.6,0,1,0.4,1,1S41.6,28,41,28z"/>
</g>
</svg>
