<?xml version="1.0" encoding="utf-8"?>
<!-- Generator: Adobe Illustrator 24.0.0, SVG Export Plug-In . SVG Version: 6.00 Build 0)  -->
<svg version="1.1" id="Layer_1" xmlns="http://www.w3.org/2000/svg" xmlns:xlink="http://www.w3.org/1999/xlink" x="0px" y="0px"
	 viewBox="0 0 48 48" style="enable-background:new 0 0 48 48;" xml:space="preserve">
<style type="text/css">
	.st0{fill:#FFFFFF;}
</style>
<title>6-File-Code</title>
<g id="_6-File-Code">
	<path class="st0" d="M14.8,31.4c-1,0-1.8-0.8-1.8-1.8c0-0.5,0.2-1,0.5-1.3l4.2-4.2l-4.2-4.2c-0.7-0.7-0.7-1.9,0-2.6s1.8-0.7,2.6,0
		l5.5,5.5c0.7,0.7,0.7,1.9,0,2.6l-5.5,5.5C15.7,31.2,15.3,31.4,14.8,31.4z"/>
	<path class="st0" d="M33.2,31.4h-7.4c-1,0-1.8-0.8-1.8-1.8s0.8-1.8,1.8-1.8h7.4c1,0,1.8,0.8,1.8,1.8S34.2,31.4,33.2,31.4z"/>
</g>
</svg>
