<?xml version="1.0" encoding="utf-8"?>
<!-- Generator: Adobe Illustrator 24.0.0, SVG Export Plug-In . SVG Version: 6.00 Build 0)  -->
<svg version="1.1" id="Layer_1" xmlns="http://www.w3.org/2000/svg" xmlns:xlink="http://www.w3.org/1999/xlink" x="0px" y="0px"
	 viewBox="0 0 100 100" style="enable-background:new 0 0 100 100;" xml:space="preserve">
<style type="text/css">
	.st0{fill:#FFFFFF;}
</style>
<path class="st0" d="M83.3,10H16.7C13,10,10,13,10,16.7v66.7c0,3.7,3,6.7,6.7,6.7h66.7c3.7,0,6.7-3,6.7-6.7V16.7
	C90,13,87,10,83.3,10z M40,26.7c-3.7,0-6.7,3-6.7,6.7V40c0,4-1.8,7.6-4.6,10c2.8,2.4,4.6,6,4.6,10v6.7c0,3.7,3,6.7,6.7,6.7V80
	c-7.4,0-13.3-6-13.3-13.3V60c0-3.7-3-6.7-6.7-6.7l0,0l0,0v-6.7c3.7,0,6.7-3,6.7-6.7v-6.7C26.7,26,32.6,20,40,20V26.7z M80,53.3
	c-3.7,0-6.7,3-6.7,6.7v6.7C73.3,74,67.4,80,60,80v-6.7c3.7,0,6.7-3,6.7-6.7V60c0-4,1.8-7.6,4.6-10c-2.8-2.4-4.6-6-4.6-10v-6.7
	c0-3.7-3-6.7-6.7-6.7V20c7.4,0,13.3,6,13.3,13.3V40c0,3.7,3,6.7,6.7,6.7C80,46.7,80,53.3,80,53.3z"/>
</svg>
