<?xml version="1.0" encoding="utf-8"?>
<!-- Generator: Adobe Illustrator 24.0.0, SVG Export Plug-In . SVG Version: 6.00 Build 0)  -->
<svg version="1.1" id="Layer_1" xmlns="http://www.w3.org/2000/svg" xmlns:xlink="http://www.w3.org/1999/xlink" x="0px" y="0px"
	 viewBox="0 0 100 100" style="enable-background:new 0 0 100 100;" xml:space="preserve">
<style type="text/css">
	.st0{fill:#FFFFFF;}
</style>
<path class="st0" d="M86.7,73.3c0,2.1-2.5,3.7-3.3,5.5c-0.8,1.9-0.2,4.8-1.6,6.2c-1.4,1.4-4.3,0.8-6.2,1.6C73.7,87.5,72.1,90,70,90
	s-3.7-2.5-5.5-3.3c-1.9-0.8-4.8-0.2-6.2-1.6s-0.8-4.3-1.6-6.2c-0.8-1.8-3.3-3.4-3.3-5.5s2.5-3.7,3.3-5.5c0.8-1.9,0.2-4.8,1.6-6.2
	c1.4-1.4,4.3-0.8,6.2-1.6c1.8-0.8,3.4-3.3,5.5-3.3s3.7,2.5,5.6,3.3s4.8,0.2,6.2,1.6c1.4,1.4,0.8,4.3,1.6,6.2
	C84.2,69.6,86.7,71.2,86.7,73.3z"/>
<path class="st0" d="M43.3,10c-7.7,8.2-18.3,13.3-30,13.3v21.8c0,13.4,5.4,25.6,14.2,34.4C32,84,37.3,87.6,43.3,90
	c2.7-1.1,5.3-2.5,7.8-4.1c-0.4-1.4-0.6-2.7-0.7-3.7c0-0.2,0-0.4-0.1-0.7c-0.1-0.1-0.3-0.3-0.4-0.4c-1.3-1.5-3.4-4-3.4-7.7
	s2.1-6.2,3.4-7.7c0.1-0.2,0.3-0.3,0.4-0.5c0-0.1,0-0.4,0-0.6c0.2-1.9,0.5-5.1,3-7.7c2.6-2.6,5.8-2.9,7.7-3c0.2,0,0.4,0,0.7-0.1
	c0.2-0.1,0.3-0.3,0.5-0.4c1.5-1.3,4-3.4,7.7-3.4c1.1,0,2.1,0.2,3,0.5c0.2-1.8,0.3-3.6,0.3-5.4V23.3C61.6,23.3,51,18.2,43.3,10z
	 M41.7,56.7l-10-10l4.7-4.7l5.3,5.3l12-12l4.7,4.7L41.7,56.7z"/>
</svg>
