<?xml version="1.0" encoding="UTF-8"?>
<!DOCTYPE svg PUBLIC "-//W3C//DTD SVG 1.1//EN" "http://www.w3.org/Graphics/SVG/1.1/DTD/svg11.dtd">
<!-- Creator: CorelDRAW -->
<svg xmlns="http://www.w3.org/2000/svg" xml:space="preserve" width="6.82666in" height="6.82666in" style="shape-rendering:geometricPrecision; text-rendering:geometricPrecision; image-rendering:optimizeQuality; fill-rule:evenodd; clip-rule:evenodd"
viewBox="0 0 6.82666 6.82666"
 xmlns:xlink="http://www.w3.org/1999/xlink">
 <defs>
  <style type="text/css">
   <![CDATA[
    .fil3 {fill:none}
    .fil2 {fill:#212121;fill-rule:nonzero}
    .fil1 {fill:#e4e4e2;fill-rule:nonzero}
    .fil0 {fill:#f3a712;fill-rule:nonzero}
   ]]>
  </style>
 </defs>
 <g id="Layer_x0020_1">
  <metadata id="CorelCorpID_0Corel-Layer"/>
  <g id="_549614608">
   <path id="_549615160" class="fil0" d="M5.01333 1.27108l0 1.05646c0,0.054937 -0.0445394,0.0994764 -0.0994803,0.0994764l-0.26922 0 0.0130512 0.444039 -0.640232 -0.444039 -1.14087 0c-0.054937,0 -0.0994764,-0.0445394 -0.0994764,-0.0994764l0 -1.05646c0,-0.0549409 0.0445394,-0.0994803 0.0994764,-0.0994803l2.03727 0c0.0549409,0 0.0994803,0.0445394 0.0994803,0.0994803zm-1.94266 0.423488l1.64909 0 0 -0.0994764 -1.64909 0 0 0.0994764zm0 0.257524l0.965425 0 0 -0.0994764 -0.965425 0 0 0.0994764z"/>
   <path id="_549615352" class="fil0" d="M1.56399 0.941031l0 1.05646c0,0.054937 0.0445394,0.0994764 0.0994803,0.0994764l0.169748 0 -0.0130512 0.444039 0.640232 -0.444039 0.217228 0 0 -0.82589c0,-0.109846 0.0891102,-0.198953 0.198953,-0.198953l0.923638 0 0 -0.131098c0,-0.0549409 -0.0445394,-0.0994803 -0.0994764,-0.0994803l-2.03727 0c-0.0549409,0 -0.0994803,0.0445394 -0.0994803,0.0994803z"/>
  </g>
  <path class="fil1" d="M5.49923 3.54216l0 0.0138268c-0.22624,0.0168858 -0.482091,0.011622 -0.673402,-0.100909 -0.181622,-0.106831 -0.193906,-0.247638 -0.145945,-0.434835 0.0393307,-0.00392126 0.0792835,-0.00557087 0.11928,-0.00497638 0.0964764,0.00142913 0.192992,0.016 0.28137,0.0431575 0.238591,0.0733189 0.422984,0.23687 0.418311,0.483736l0.000385827 0zm0 0.120276l0 0.220075c0,0.332752 -0.183031,0.5465 -0.417315,0.640661 -0.0895906,0.0360079 -0.186094,0.0540157 -0.28198,0.0540157 -0.0958858,0 -0.192386,-0.0180079 -0.28198,-0.0540157 -0.233587,-0.0938819 -0.416205,-0.306654 -0.417287,-0.637717 0.0730236,-0.0126969 0.148346,-0.0326535 0.21839,-0.0532677 0.053126,-0.0156339 0.106252,-0.0329252 0.157898,-0.052937 0.0350197,-0.0135669 0.0765433,-0.0304764 0.108043,-0.0510354 0.0580433,-0.0378898 0.11139,-0.086315 0.148173,-0.145535l0.0261693 -0.0421378 0.0439213 0.0230551c0.207504,0.108917 0.460929,0.115988 0.695969,0.0988386zm-1.39859 0.114882l0 -0.235157c0,-0.263228 0.18189,-0.423602 0.417083,-0.491299 0.0170472,-0.00490551 0.0344134,-0.00929528 0.0520394,-0.013185 -0.0121969,0.0931102 -0.0274882,0.210606 0.00188976,0.299177 0.0145039,0.0437283 0.0389331,0.0800039 0.0711102,0.11272l0.0272756 0.0277323 -0.0180748 0.0344449c-0.0277126,0.0527992 -0.0751378,0.0952283 -0.1245,0.127449 -0.0310945,0.0202953 -0.0719409,0.0362087 -0.106764,0.0490079 -0.046685,0.0171614 -0.094563,0.0320315 -0.142409,0.0456063 -0.0570709,0.0161969 -0.117996,0.0322165 -0.17765,0.0435039z"/>
  <path class="fil2" d="M5.61303 5.08076c-0.0865276,-0.13724 -0.206831,-0.251366 -0.349024,-0.330516 -0.14102,0.0775748 -0.302717,0.116374 -0.464039,0.116382 -0.161323,7.87402e-006 -0.323024,-0.0387795 -0.464055,-0.116343 -0.142173,0.0791496 -0.262461,0.193276 -0.348976,0.330512 -0.0930118,0.147543 -0.146941,0.322236 -0.146941,0.509256l0 0.169945 1.92 0 0 -0.169945c0,-0.187035 -0.053937,-0.361736 -0.146965,-0.509291z"/>
  <path class="fil1" d="M5.31399 4.53626c0.19663,0.0965669 0.362764,0.246736 0.479039,0.431161 0.11413,0.181028 0.180303,0.394654 0.180303,0.622622l0 0.276614c0,0.0589094 -0.0477598,0.106669 -0.106669,0.106669l-2.13334 0c-0.0589094,0 -0.106669,-0.0477598 -0.106669,-0.106669l0 -0.276614c0,-0.227949 0.0661654,-0.441563 0.18028,-0.622587 0.117689,-0.186681 0.286461,-0.338272 0.486244,-0.434701l-0.000110236 -0.000228346c0.00409055,-0.00197244 0.00824409,-0.00366142 0.0124409,-0.0050748 0.0515906,0.0373386 0.10922,0.069185 0.172673,0.094689 0.101957,0.0409764 0.211917,0.0617087 0.321756,0.0617087 0.109839,0 0.219803,-0.0207323 0.32176,-0.0617087 0.0360591,-0.0144921 0.0702205,-0.0310472 0.102476,-0.0494724l0.0362992 0.0558819 -0.0362677 -0.0558976c0.0245276,-0.0140079 0.0479606,-0.0290787 0.0702441,-0.0452087 0.00676378,0.00226772 0.013311,0.0052126 0.0195394,0.00881496z"/>
  <path class="fil1" d="M2.72591 3.54216l0 0.0138268c-0.22624,0.0168858 -0.482091,0.011622 -0.673402,-0.100909 -0.181622,-0.106831 -0.193906,-0.247638 -0.145945,-0.434835 0.0393307,-0.00392126 0.0792835,-0.00557087 0.11928,-0.00497638 0.0964764,0.00142913 0.192992,0.016 0.28137,0.0431575 0.238591,0.0733189 0.422984,0.23687 0.418311,0.483736l0.000385827 0zm0 0.120276l0 0.220075c0,0.332752 -0.183031,0.5465 -0.417315,0.640661 -0.0895906,0.0360079 -0.186094,0.0540157 -0.28198,0.0540157 -0.0958858,0 -0.192386,-0.0180079 -0.28198,-0.0540157 -0.233587,-0.0938819 -0.416205,-0.306654 -0.417287,-0.637717 0.0730236,-0.0126969 0.148346,-0.0326535 0.21839,-0.0532677 0.053126,-0.0156339 0.106252,-0.0329252 0.157898,-0.052937 0.0350197,-0.0135669 0.0765433,-0.0304764 0.108043,-0.0510354 0.0580433,-0.0378898 0.11139,-0.086315 0.148173,-0.145535l0.0261693 -0.0421378 0.0439213 0.0230551c0.207504,0.108917 0.460929,0.115988 0.695969,0.0988386zm-1.39859 0.114882l0 -0.235157c0,-0.263228 0.18189,-0.423602 0.417083,-0.491299 0.0170472,-0.00490551 0.0344134,-0.00929528 0.0520394,-0.013185 -0.0121969,0.0931102 -0.0274882,0.210606 0.00188976,0.299177 0.0145039,0.0437283 0.0389331,0.0800039 0.0711102,0.11272l0.0272756 0.0277323 -0.0180748 0.0344449c-0.0277126,0.0527992 -0.0751378,0.0952283 -0.1245,0.127449 -0.0310945,0.0202953 -0.0719409,0.0362087 -0.106764,0.0490079 -0.046685,0.0171614 -0.094563,0.0320315 -0.142409,0.0456063 -0.0570709,0.0161969 -0.117996,0.0322165 -0.17765,0.0435039z"/>
  <path class="fil2" d="M2.8397 5.08076c-0.0865276,-0.13724 -0.206831,-0.251366 -0.349024,-0.330516 -0.14102,0.0775748 -0.302717,0.116374 -0.464039,0.116382 -0.161323,7.87402e-006 -0.323024,-0.0387795 -0.464055,-0.116343 -0.142173,0.0791496 -0.262461,0.193276 -0.348976,0.330512 -0.0930118,0.147543 -0.146941,0.322236 -0.146941,0.509256l0 0.169945 1.92 0 0 -0.169945c0,-0.187035 -0.053937,-0.361736 -0.146965,-0.509291z"/>
  <path class="fil1" d="M2.54067 4.53626c0.19663,0.0965669 0.362764,0.246736 0.479039,0.431161 0.11413,0.181028 0.180303,0.394654 0.180303,0.622622l0 0.276614c0,0.0589094 -0.0477598,0.106669 -0.106669,0.106669l-2.13334 0c-0.0589094,0 -0.106669,-0.0477598 -0.106669,-0.106669l0 -0.276614c0,-0.227949 0.0661654,-0.441563 0.18028,-0.622587 0.117689,-0.186681 0.286461,-0.338272 0.486244,-0.434701l-0.000110236 -0.000228346c0.00409055,-0.00197244 0.00824409,-0.00366142 0.0124409,-0.0050748 0.0515906,0.0373386 0.10922,0.069185 0.172673,0.094689 0.101957,0.0409764 0.211917,0.0617087 0.321756,0.0617087 0.109839,0 0.219803,-0.0207323 0.32176,-0.0617087 0.0360591,-0.0144921 0.0702205,-0.0310472 0.102476,-0.0494724l0.0362992 0.0558819 -0.0362677 -0.0558976c0.0245276,-0.0140079 0.0479606,-0.0290787 0.0702441,-0.0452087 0.00676378,0.00226772 0.013311,0.0052126 0.0195394,0.00881496z"/>
 </g>
 <rect class="fil3" width="6.82666" height="6.82666"/>
</svg>
