<?xml version="1.0" encoding="UTF-8"?>
<!DOCTYPE svg PUBLIC "-//W3C//DTD SVG 1.1//EN" "http://www.w3.org/Graphics/SVG/1.1/DTD/svg11.dtd">
<!-- Creator: CorelDRAW -->
<svg xmlns="http://www.w3.org/2000/svg" xml:space="preserve" width="6.82666in" height="6.82666in" style="shape-rendering:geometricPrecision; text-rendering:geometricPrecision; image-rendering:optimizeQuality; fill-rule:evenodd; clip-rule:evenodd"
viewBox="0 0 6.82666 6.82666"
 xmlns:xlink="http://www.w3.org/1999/xlink">
 <defs>
  <style type="text/css">
   <![CDATA[
    .fil3 {fill:none}
    .fil0 {fill:#e4e4e2}
    .fil1 {fill:#f3a712}
    .fil2 {fill:#e4e4e2;fill-rule:nonzero}
   ]]>
  </style>
 </defs>
 <g id="Layer_x0020_1">
  <metadata id="CorelCorpID_0Corel-Layer"/>
  <path class="fil0" d="M4.30063 1.41783l0 0.0148071c-0.287087,0.0180787 -0.611756,0.0124331 -0.854512,-0.108051 -0.230453,-0.114386 -0.246051,-0.265161 -0.185193,-0.465602 0.0499094,-0.00419685 0.100602,-0.00596457 0.151358,-0.00532677 0.122425,0.0015315 0.244894,0.0171299 0.357039,0.0462126 0.302764,0.0785039 0.536748,0.253626 0.530815,0.517961l0.000492126 0zm0 0.128787l0 0.23565c0,0.0239134 -0.00105118,0.439106 -0.00309055,0.461846 -0.0283583,0.316417 -0.249126,0.521902 -0.526465,0.615957 -0.113681,0.0385551 -0.236138,0.0578425 -0.357811,0.0578425 -0.121677,0 -0.244126,-0.0192874 -0.357819,-0.0578425 -0.272713,-0.0924843 -0.490701,-0.29274 -0.52485,-0.600244 -0.00296457,-0.0267008 -0.00455118,-0.446067 -0.00466142,-0.474409 0.0926614,-0.0135945 0.188252,-0.0349764 0.277122,-0.0570354 0.0673976,-0.0167323 0.134839,-0.0352717 0.200362,-0.056685 0.0444291,-0.0145157 0.0971299,-0.0326339 0.137098,-0.0546417 0.0736575,-0.0405748 0.141358,-0.0924213 0.188031,-0.155839l0.0332008 -0.045122 0.0557362 0.024689c0.263311,0.116626 0.58489,0.124197 0.883146,0.105835zm-1.17944 -0.668965c-0.0154803,0.0996969 -0.0348661,0.225516 0.00239764,0.320343 0.0183937,0.046811 0.0494173,0.0856772 0.0902323,0.120697l0.0346102 0.0296929 -0.0229331 0.0368898c-0.0351693,0.0565315 -0.0953583,0.101972 -0.157984,0.136461 -0.0394449,0.0217244 -0.0913031,0.0387795 -0.135476,0.0524764 -0.0592283,0.0183661 -0.119996,0.0342992 -0.180709,0.0488346 -0.0724213,0.0173386 -0.149736,0.0344921 -0.225425,0.0465827l0 -0.251799c0,-0.281854 0.230807,-0.453571 0.529248,-0.526059 0.0216339,-0.00525591 0.0436732,-0.00995669 0.0660394,-0.0141181zm0.79322 0.988157l-0.350331 0c-0.00353937,0 -0.00679528,0.00148031 -0.00916929,0.00385827l0 0c-0.000358268,0.000362205 -0.000720472,0.000708661 -0.00109055,0.00105118 -0.00172441,0.0021811 -0.00276772,0.00500394 -0.00276772,0.00811811l0 0.111071c0,0.0340787 0.0139764,0.0650984 0.0364843,0.0876063 0.0225039,0.0225079 0.0535276,0.0364803 0.0876063,0.0364803l0.200189 0c0.023937,0 0.0457244,-0.00982283 0.0615433,-0.0256417 0.0158189,-0.015815 0.0256417,-0.0376063 0.0256417,-0.0615433l0 -0.112894c0,-0.0131811 -0.0054252,-0.0252087 -0.0141575,-0.0339409 -0.00874016,-0.00873622 -0.0207598,-0.0141654 -0.0339488,-0.0141654zm-1.00216 -0.0783622l0.350331 0c0.0251732,0 0.0480315,0.0102677 0.0645827,0.026815l0 0c0.000964567,0.000956693 0.00185827,0.00194882 0.00269291,0.00298425 0.0149606,0.0163346 0.0241181,0.0379882 0.0241181,0.0615906l0 0.111071c0,0.0557126 -0.0227677,0.106335 -0.0594409,0.143016 -0.0366732,0.0366732 -0.0873031,0.0594409 -0.143016,0.0594409l-0.200181 0c-0.0455669,0 -0.0869724,-0.0186142 -0.116953,-0.0486024 -0.0299882,-0.0299882 -0.0486024,-0.0713858 -0.0486024,-0.116953l0 -0.112894c0,-0.034815 0.0142165,-0.0664528 0.0371181,-0.0893504 0.0228976,-0.0229016 0.0545354,-0.0371181 0.0893504,-0.0371181zm0.350331 0.0783622l-0.350331 0c-0.0131811,0 -0.0252087,0.00542913 -0.0339409,0.0141654 -0.00873622,0.00873228 -0.0141654,0.0207598 -0.0141654,0.0339409l0 0.112894c0,0.023937 0.00983071,0.0457283 0.0256496,0.0615433 0.015815,0.0158189 0.0376063,0.0256417 0.0615433,0.0256417l0.200181 0c0.0340787,0 0.0651024,-0.0139724 0.0876063,-0.0364803 0.0225118,-0.0225079 0.0364803,-0.0535276 0.0364803,-0.0876063l0 -0.111071c0,-0.00311417 -0.0010315,-0.00593701 -0.00276378,-0.00811811 -0.000370079,-0.00034252 -0.000732283,-0.000688976 -0.00109055,-0.00105118l3.93701e-006 0c-0.00237795,-0.00237795 -0.00562598,-0.00385827 -0.00917323,-0.00385827zm0.3015 -0.0783622l0.350331 0c0.0348228,0 0.0664567,0.0142165 0.0893504,0.0371181 0.0229016,0.0228976 0.037126,0.0545354 0.037126,0.0893504l0 0.112894c0,0.0455669 -0.0186181,0.0869646 -0.0486063,0.116953 -0.0299843,0.0299882 -0.0713858,0.0486024 -0.116949,0.0486024l-0.200189 0c-0.0557126,0 -0.106343,-0.0227677 -0.143012,-0.0594409 -0.0366732,-0.0366811 -0.0594409,-0.0873031 -0.0594409,-0.143016l0 -0.111071c0,-0.0236024 0.00915748,-0.0452559 0.0241142,-0.0615906 0.00084252,-0.00103543 0.00173622,-0.00202756 0.00269291,-0.00298425l7.87402e-006 0c0.0165472,-0.0165472 0.0394016,-0.026815 0.0645748,-0.026815z"/>
  <path class="fil1" d="M4.06117 2.93441c0.244138,0.118449 0.451866,0.263705 0.600268,0.45311 0.0607598,0.0775433 0.111323,0.162039 0.150142,0.254567l-2.79649 0c0.038811,-0.0925118 0.0893661,-0.176992 0.15011,-0.254524 0.149441,-0.190748 0.359035,-0.33672 0.605421,-0.455638 0.0259528,-0.0183425 0.072752,0.0013937 0.0815945,0.00814173 0.165083,0.105583 0.362917,0.158382 0.561087,0.158374 0.200173,-3.93701e-006 0.40002,-0.0538937 0.56611,-0.161669l-0.000106299 -0.000228346c0.0255551,-0.0165866 0.0571693,-0.016378 0.0818661,-0.00213386z"/>
  <path class="fil2" d="M1.00654 3.74875l4.81546 0c0.0589094,0 0.106669,0.0463583 0.106669,0.103543 0,0.0162717 -0.00387008,0.0316693 -0.0107638,0.0453701l-0.652854 1.63303 -0.0991654 -0.0372126 0.0994409 0.0374606c-0.0166654,0.041689 -0.0580945,0.0669449 -0.101626,0.0660866l-3.5029 0c-0.0484331,0 -0.0893189,-0.0313386 -0.102335,-0.0742638l-0.652894 -1.63313 -0.000326772 0.000122047c-0.021311,-0.0533071 0.00593307,-0.113299 0.0608504,-0.133988 0.0132992,-0.00501181 0.027,-0.00724803 0.040437,-0.00701575z"/>
  <path class="fil2" d="M1.64609 5.65874c-0.0589094,0 -0.106669,0.0463583 -0.106669,0.103543 0,0.0571811 0.0187874,0.210843 0.0776969,0.210843l3.5345 0c0.0589094,0 0.135642,-0.153661 0.135642,-0.210843 0,-0.057185 -0.0477598,-0.103543 -0.106669,-0.103543l-3.5345 0zm0.241921 0.0842756l0.0538228 0 0 0.145835 -0.0538228 0 0 -0.145835zm0.625016 0l0.0538228 0 0 0.145835 -0.0538228 0 0 -0.145835zm-0.104169 0l0.0538228 0 0 0.145835 -0.0538228 0 0 -0.145835zm-0.104169 0l0.0538228 0 0 0.145835 -0.0538228 0 0 -0.145835zm-0.104169 0l0.0538228 0 0 0.145835 -0.0538228 0 0 -0.145835zm-0.104169 0l0.0538228 0 0 0.145835 -0.0538228 0 0 -0.145835zm-0.104169 0l0.0538228 0 0 0.145835 -0.0538228 0 0 -0.145835zm1.92718 -0.0064252c0.0438189,0 0.0793425,0.0355236 0.0793425,0.0793425 0,0.0438228 -0.0355236,0.0793465 -0.0793425,0.0793465 -0.0438228,0 -0.0793465,-0.0355236 -0.0793465,-0.0793465 0,-0.0438189 0.0355236,-0.0793425 0.0793465,-0.0793425zm-3.93701e-006 0.0520197c0.0150906,0 0.0273228,0.0122323 0.0273228,0.0273228 0,0.0150906 -0.0122323,0.0273228 -0.0273228,0.0273228 -0.0150906,0 -0.0273228,-0.0122323 -0.0273228,-0.0273228 0,-0.0150906 0.0122323,-0.0273228 0.0273228,-0.0273228zm0.711264 -0.0655591l0.0694409 0c0.0114606,0 0.0208346,0.00937402 0.0208346,0.0208346l0 0.144094c0,0.0114606 -0.00937402,0.0208346 -0.0208346,0.0208346l-0.0694409 0c-0.0114606,0 -0.0208346,-0.00937402 -0.0208346,-0.0208346l0 -0.144094c0,-0.0114606 0.00937402,-0.0208346 0.0208346,-0.0208346zm0.145835 0l0.0694409 0c0.0114606,0 0.0208346,0.00937402 0.0208346,0.0208346l0 0.144094c0,0.0114606 -0.00937402,0.0208346 -0.0208346,0.0208346l-0.0694409 0c-0.0114606,0 -0.0208346,-0.00937402 -0.0208346,-0.0208346l0 -0.144094c0,-0.0114606 0.00937402,-0.0208346 0.0208346,-0.0208346zm-0.43924 0l0.0694409 0c0.0114606,0 0.0208346,0.00937402 0.0208346,0.0208346l0 0.144094c0,0.0114606 -0.00937402,0.0208346 -0.0208346,0.0208346l-0.0694409 0c-0.0114606,0 -0.0208346,-0.00937402 -0.0208346,-0.0208346l0 -0.144094c0,-0.0114606 0.00937402,-0.0208346 0.0208346,-0.0208346zm0.145835 0l0.0694409 0c0.0114606,0 0.0208346,0.00937402 0.0208346,0.0208346l0 0.144094c0,0.0114606 -0.00937402,0.0208346 -0.0208346,0.0208346l-0.0694409 0c-0.0114606,0 -0.0208346,-0.00937402 -0.0208346,-0.0208346l0 -0.144094c0,-0.0114606 0.00937402,-0.0208346 0.0208346,-0.0208346z"/>
  <rect class="fil0" x="1.85503" y="5.5652" width="0.970238" height="0.134686"/>
  <rect class="fil0" x="3.94668" y="5.5652" width="0.970238" height="0.132946"/>
 </g>
 <rect class="fil3" width="6.82666" height="6.82666"/>
</svg>
