<?xml version="1.0" encoding="UTF-8"?>
<!DOCTYPE svg PUBLIC "-//W3C//DTD SVG 1.1//EN" "http://www.w3.org/Graphics/SVG/1.1/DTD/svg11.dtd">
<!-- Creator: CorelDRAW -->
<svg xmlns="http://www.w3.org/2000/svg" xml:space="preserve" width="6.82666in" height="6.82666in" style="shape-rendering:geometricPrecision; text-rendering:geometricPrecision; image-rendering:optimizeQuality; fill-rule:evenodd; clip-rule:evenodd"
viewBox="0 0 6.82666 6.82666"
 xmlns:xlink="http://www.w3.org/1999/xlink">
 <defs>
  <style type="text/css">
   <![CDATA[
    .fil2 {fill:none}
    .fil0 {fill:#e4e4e2}
    .fil1 {fill:#f3a712}
   ]]>
  </style>
 </defs>
 <g id="Layer_x0020_1">
  <metadata id="CorelCorpID_0Corel-Layer"/>
  <path class="fil0" d="M1.25676 3.41711c0.0691614,0.035626 0.12976,0.085189 0.171567,0.154295 0.0729724,0.120622 0.0837441,0.311409 0.0837441,0.448866l0 0.424228c0,0.0830472 0.00562205,0.259094 0.065563,0.324823 0.0560827,0.0614961 0.183417,0.0699646 0.260224,0.0699646 0.0117047,0 0.0237953,-0.000889764 0.0354685,-0.00167717 0.0144843,-0.000984252 0.0292126,-0.00192126 0.0437323,-0.00192126l0.0522441 0 0 0.291098 -0.135047 0c-0.161531,0 -0.386551,-0.0192717 -0.505701,-0.143252 -0.12276,-0.127748 -0.13698,-0.389953 -0.13698,-0.556437l0 -0.429626c0,-0.105874 -0.0117756,-0.263547 -0.086752,-0.346626 -0.0510669,-0.0565906 -0.132551,-0.0791732 -0.205634,-0.0881732l-0.0458543 -0.00564567 0 -0.283787 0.0458543 -0.00564567c0.0729331,-0.00898031 0.154681,-0.0314764 0.205567,-0.0880945 0.0750079,-0.0834528 0.0868189,-0.241697 0.0868189,-0.347906l0 -0.427224c0,-0.167937 0.0146102,-0.428531 0.137343,-0.55798 0.119866,-0.126429 0.341657,-0.146508 0.505339,-0.146508l0.135047 0 0 0.291098 -0.117047 0c-0.0789961,0 -0.214874,0.00811811 -0.273122,0.0708976 -0.0612165,0.0659685 -0.067063,0.241252 -0.067063,0.325091l0 0.426626c0,0.137331 -0.0108465,0.327772 -0.0837441,0.448272 -0.041811,0.0691142 -0.102461,0.119008 -0.171567,0.155244zm4.31315 0c-0.0691063,-0.0362362 -0.129756,-0.0861299 -0.171567,-0.155244 -0.0728976,-0.1205 -0.0837441,-0.310941 -0.0837441,-0.448272l0 -0.426626c0,-0.0838386 -0.00584646,-0.259122 -0.067063,-0.325091 -0.058248,-0.0627795 -0.194126,-0.0708976 -0.273122,-0.0708976l-0.117047 0 0 -0.291098 0.135047 0c0.163681,0 0.385472,0.0200787 0.505339,0.146508 0.122732,0.129449 0.137343,0.390043 0.137343,0.55798l0 0.427224c0,0.106209 0.011811,0.264453 0.0868189,0.347906 0.0508858,0.0566181 0.132634,0.0791142 0.205567,0.0880945l0.0458543 0.00564567 0 0.283787 -0.0458543 0.00564567c-0.0730827,0.009 -0.154567,0.0315827 -0.205634,0.0881732 -0.0749764,0.0830787 -0.086752,0.240752 -0.086752,0.346626l0 0.429626c0,0.166484 -0.0142205,0.428689 -0.13698,0.556437 -0.11915,0.12398 -0.344169,0.143252 -0.505701,0.143252l-0.135047 0 0 -0.291098 0.0522441 0c0.0145197,0 0.029248,0.000937008 0.0437323,0.00192126 0.0116732,0.000787402 0.0237638,0.00167717 0.0354685,0.00167717 0.0768071,0 0.204142,-0.0084685 0.260224,-0.0699646 0.0599409,-0.0657283 0.065563,-0.241776 0.065563,-0.324823l0 -0.424228c0,-0.137457 0.0107717,-0.328244 0.0837441,-0.448866 0.0418071,-0.0691063 0.102406,-0.118669 0.171567,-0.154295z"/>
  <polygon class="fil1" points="3.9937,4.08132 3.9937,3.81597 5.03292,3.81597 5.03292,4.08132 "/>
  <path class="fil1" d="M3.92039 3.41161l-0.559295 -0.363862 0 -0.347909 0.865378 0.578252 0 0.263937 -0.865378 0.585469 0 -0.348874 0.559295 -0.367012zm-2.05972 0l0.560012 0.366992 0 0.348894 -0.865378 -0.585469 0 -0.263937 0.865378 -0.578252 0 0.347929 -0.560012 0.363843z"/>
  <polygon class="fil1" points="3.38594,2.34311 2.69849,4.56443 2.39584,4.48356 3.08328,2.26224 "/>
 </g>
 <rect class="fil2" width="6.82666" height="6.82666"/>
</svg>
