<?xml version="1.0" encoding="UTF-8"?>
<!DOCTYPE svg PUBLIC "-//W3C//DTD SVG 1.1//EN" "http://www.w3.org/Graphics/SVG/1.1/DTD/svg11.dtd">
<!-- Creator: CorelDRAW -->
<svg xmlns="http://www.w3.org/2000/svg" xml:space="preserve" width="6.82666in" height="6.82666in" style="shape-rendering:geometricPrecision; text-rendering:geometricPrecision; image-rendering:optimizeQuality; fill-rule:evenodd; clip-rule:evenodd"
viewBox="0 0 6.82666 6.82666"
 xmlns:xlink="http://www.w3.org/1999/xlink">
 <defs>
  <style type="text/css">
   <![CDATA[
    .fil4 {fill:none}
    .fil3 {fill:#f3a712}
    .fil2 {fill:#e4e4e2}
    .fil1 {fill:#f3a712;fill-rule:nonzero}
    .fil0 {fill:#e4e4e2;fill-rule:nonzero}
   ]]>
  </style>
 </defs>
 <g id="Layer_x0020_1">
  <metadata id="CorelCorpID_0Corel-Layer"/>
  <path class="fil0" d="M4.302 1.88219c0.330945,0 0.630618,0.134185 0.847543,0.35111 0.216917,0.216917 0.351102,0.516579 0.351102,0.847535 0,0.332992 -0.101555,0.511693 -0.209992,0.702508 -0.0893228,0.157181 -0.183957,0.323736 -0.215146,0.611197 -0.000885827,0.0583228 -0.0248268,0.110992 -0.0631535,0.149319 -0.0390669,0.0390591 -0.0930157,0.0631811 -0.152677,0.0631811l-1.1154 0c-0.0596575,0 -0.11361,-0.024122 -0.152677,-0.0631811 -0.0369409,-0.0369409 -0.0605197,-0.0872087 -0.0629646,-0.143024 -0.000173228,-0.00194882 -0.000295276,-0.00390945 -0.000366142,-0.00588189 -0.0131417,-0.121799 -0.0376693,-0.221898 -0.0683701,-0.308768 0.033626,-0.0803504 0.0777047,-0.157854 0.130154,-0.250146 0.0152244,-0.0267874 0.0304449,-0.0535787 0.0452795,-0.0805866 0.123815,-0.225469 0.178642,-0.414563 0.178642,-0.674618 0,-0.323843 -0.119016,-0.632811 -0.334173,-0.872134 0.214626,-0.202413 0.503937,-0.326512 0.822201,-0.326512z"/>
  <path class="fil1" d="M2.50866 1.88219c0.330945,0 0.630614,0.134181 0.847539,0.35111 0.216917,0.216917 0.351102,0.516579 0.351102,0.847535 0,0.332992 -0.101551,0.511697 -0.209992,0.702504 -0.0893228,0.157185 -0.183957,0.32374 -0.215142,0.611201 -0.000885827,0.0583228 -0.0248268,0.110992 -0.0631535,0.149319 -0.0390669,0.0390591 -0.0930197,0.0631811 -0.152677,0.0631811l-1.11541 0c-0.0596614,0 -0.11361,-0.024122 -0.152677,-0.0631811 -0.0369409,-0.0369409 -0.0605197,-0.0872087 -0.0629646,-0.143024 -0.000173228,-0.00194882 -0.000295276,-0.00390945 -0.000366142,-0.00588189 -0.0310472,-0.287787 -0.125685,-0.454429 -0.215024,-0.611697 -0.108374,-0.190783 -0.209886,-0.369484 -0.209886,-0.702421 0,-0.330965 0.134177,-0.63063 0.351098,-0.847547 0.216917,-0.216921 0.516583,-0.351098 0.847547,-0.351098z"/>
  <path class="fil2" d="M4.67193 5.38313c0,0.117862 -0.0827638,0.213323 -0.184957,0.213323l-0.369945 0c-0.102189,0 -0.184957,-0.0954606 -0.184957,-0.213323l0.739858 0z"/>
  <path class="fil2" d="M4.84798 5.05553c0.0604409,0 0.109189,0.0476142 0.109189,0.106654 0,0.0590354 -0.048748,0.106657 -0.109189,0.106657l-1.09198 0c-0.0604843,0 -0.109236,-0.047622 -0.109236,-0.106657 0,-0.0590394 0.0487441,-0.106654 0.109236,-0.106654l1.09198 0z"/>
  <path class="fil2" d="M4.84798 4.72791c0.0604409,0 0.109189,0.0476181 0.109189,0.106701 0,0.0590394 -0.048748,0.106654 -0.109189,0.106654l-1.09198 0c-0.0604843,0 -0.109236,-0.0476142 -0.109236,-0.106654 0,-0.0590827 0.0487441,-0.106701 0.109236,-0.106701l1.09198 0z"/>
  <path class="fil3" d="M2.87856 5.38313c0,0.117858 -0.0827598,0.213315 -0.184957,0.213315l-0.369941 0c-0.102189,0 -0.184957,-0.0954567 -0.184957,-0.213315l0.739854 0z"/>
  <path class="fil3" d="M3.05465 5.05552c0.0604449,0 0.109193,0.0476181 0.109193,0.106661 0,0.0590394 -0.048748,0.106665 -0.109193,0.106665l-1.09197 0c-0.0604882,0 -0.10924,-0.047626 -0.10924,-0.106665 0,-0.0590433 0.048748,-0.106661 0.10924,-0.106661l1.09197 0z"/>
  <path class="fil3" d="M3.05465 4.72792c0.0604449,0 0.109193,0.0476181 0.109193,0.106693 0,0.0590354 -0.048748,0.106646 -0.109193,0.106646l-1.09197 0c-0.0604882,0 -0.10924,-0.0476102 -0.10924,-0.106646 0,-0.0590748 0.048748,-0.106693 0.10924,-0.106693l1.09197 0z"/>
  <path class="fil1" d="M2.562 1.28354c0,-0.0294528 -0.0238819,-0.0533346 -0.0533346,-0.0533346 -0.0294528,0 -0.0533346,0.0238819 -0.0533346,0.0533346l0 0.370272c0,0.0294528 0.0238819,0.0533346 0.0533346,0.0533346 0.0294528,0 0.0533346,-0.0238819 0.0533346,-0.0533346l0 -0.370272z"/>
  <path class="fil0" d="M4.37133 1.28354c0,-0.0294528 -0.0238819,-0.0533346 -0.0533346,-0.0533346 -0.0294528,0 -0.0533346,0.0238819 -0.0533346,0.0533346l0 0.370272c0,0.0294528 0.0238819,0.0533346 0.0533346,0.0533346 0.0294528,0 0.0533346,-0.0238819 0.0533346,-0.0533346l0 -0.370272z"/>
  <path class="fil1" d="M1.35558 1.66816c-0.0188661,-0.0225512 -0.0524488,-0.0255354 -0.075,-0.00666929 -0.0225512,0.0188661 -0.0255354,0.0524488 -0.00666929,0.075l0.229988 0.275295c0.0188661,0.0225512 0.0524488,0.0255354 0.075,0.00666929 0.0225512,-0.0188661 0.0255354,-0.0524488 0.00666929,-0.075l-0.229988 -0.275295z"/>
  <path class="fil0" d="M5.55276 1.73649c0.0188661,-0.0225512 0.0158819,-0.0561339 -0.00666929,-0.075 -0.0225512,-0.0188661 -0.0561339,-0.0158819 -0.075,0.00666929l-0.229988 0.275295c-0.0188661,0.0225512 -0.0158819,0.0561339 0.00666929,0.075 0.0225512,0.0188661 0.0561339,0.0158819 0.075,-0.00666929l0.229988 -0.275295z"/>
  <path class="fil1" d="M0.779465 3.18649c-0.0293386,-0.000114173 -0.0532205,0.0235787 -0.0533346,0.0529173 -0.000114173,0.0293386 0.0235787,0.0532205 0.0529173,0.0533346l0.336933 0.00257087c0.0293386,0.000114173 0.0532205,-0.0235787 0.0533346,-0.0529173 0.000114173,-0.0293386 -0.0235787,-0.0532205 -0.0529173,-0.0533346l-0.336933 -0.00257087z"/>
  <path class="fil0" d="M6.04762 3.29274c0.0293386,-0.000114173 0.0530315,-0.0239961 0.0529173,-0.0533346 -0.000114173,-0.0293386 -0.0239961,-0.0530315 -0.0533346,-0.0529173l-0.336933 0.00257087c-0.0293386,0.000114173 -0.0530315,0.0239961 -0.0529173,0.0533346 0.000114173,0.0293386 0.0239961,0.0530315 0.0533346,0.0529173l0.336933 -0.00257087z"/>
  <path class="fil3" d="M2.00199 4.43711l1.01334 0 0 0.896843c0,0.0347402 -0.0284173,0.0631575 -0.0631575,0.0631575l-0.887024 0c-0.0347402,0 -0.0631575,-0.0284173 -0.0631575,-0.0631575l0 -0.896843z"/>
  <path class="fil2" d="M3.79533 4.43711l1.01334 0 0 0.896843c0,0.0347402 -0.0284173,0.0631575 -0.0631575,0.0631575l-0.887024 0c-0.0347402,0 -0.0631575,-0.0284173 -0.0631575,-0.0631575l0 -0.896843z"/>
 </g>
 <rect class="fil4" width="6.82666" height="6.82666"/>
</svg>
